<?xml version="1.0" encoding="utf-8"?>
<!-- Generator: Adobe Illustrator 19.0.1, SVG Export Plug-In . SVG Version: 6.00 Build 0)  -->
<svg version="1.1" id="Layer_1" xmlns="http://www.w3.org/2000/svg" xmlns:xlink="http://www.w3.org/1999/xlink" x="0px" y="0px"
	 viewBox="27 21.9 106 62.3" style="enable-background:new 27 21.9 106 62.3;" xml:space="preserve">
<g>
	<g>
		<path d="M84.1,82.4l47.2-47.2c1.1-1.1,1.7-2.5,1.7-4.1c0-1.6-0.6-3-1.7-4.1l-3.5-3.5c-2.3-2.3-5.9-2.3-8.2,0L80,63.2L40.4,23.6
			c-1.1-1.1-2.5-1.7-4.1-1.7c-1.6,0-3,0.6-4.1,1.7L28.7,27c-1.1,1.1-1.7,2.5-1.7,4.1c0,1.6,0.6,3,1.7,4.1l47.2,47.2
			c1.1,1.1,2.6,1.7,4.1,1.7C81.6,84.1,83,83.5,84.1,82.4z"/>
	</g>
</g>
</svg>
