<?xml version="1.0" encoding="utf-8"?>
<!-- Generator: Adobe Illustrator 19.0.1, SVG Export Plug-In . SVG Version: 6.00 Build 0)  -->
<svg version="1.1" id="Capa_1" xmlns="http://www.w3.org/2000/svg" xmlns:xlink="http://www.w3.org/1999/xlink" x="0px" y="0px"
	 viewBox="27 15.9 106 74.2" style="enable-background:new 27 15.9 106 74.2;" xml:space="preserve">
<style type="text/css">
	.st0{fill:#010002;}
</style>
<g>
	<g>
		<path class="st0" d="M35.4,20.3l38.2,30.2c1.7,1.4,4.1,2,6.4,1.9c2.3,0.1,4.7-0.5,6.4-1.9l38.2-30.2c3.1-2.4,2.4-4.4-1.5-4.4H80
			H36.9C33,15.9,32.3,17.9,35.4,20.3z"/>
		<path class="st0" d="M127.4,28.3L85.6,59.9c-1.6,1.2-3.6,1.7-5.6,1.7c-2,0-4.1-0.5-5.6-1.7L32.6,28.3c-3.1-2.3-5.6-1.1-5.6,2.8v52
			c0,3.9,3.2,7.1,7.1,7.1H80h45.9c3.9,0,7.1-3.2,7.1-7.1v-52C133,27.2,130.5,25.9,127.4,28.3z"/>
	</g>
</g>
</svg>
