<svg xmlns="http://www.w3.org/2000/svg" xmlns:xlink="http://www.w3.org/1999/xlink" width="58" height="46" viewBox="0 0 58 46"><defs><path id="73sga" d="M2 2h54v42H2zM1 0a1 1 0 0 0-1 1v44a1 1 0 0 0 1 1h56a1 1 0 0 0 1-1V1a1 1 0 0 0-1-1z"/><path id="73sgb" d="M20.14 16.57a3.57 3.57 0 1 1-7.14 0 3.57 3.57 0 0 1 7.14 0zm2 0a5.58 5.58 0 1 0-11.16.02 5.58 5.58 0 0 0 11.16-.02z"/><path id="73sgc" d="M7 40a1 1 0 0 0 .66-.25l16.31-14.36 10.31 10.3a1 1 0 1 0 1.41-1.41l-4.81-4.81 9.18-10.06 11.26 10.33c.41.37 1.04.34 1.42-.06.37-.41.34-1.04-.06-1.42l-12-11c-.2-.18-.46-.27-.72-.26a.99.99 0 0 0-.7.33l-9.79 10.72-4.75-4.74a1 1 0 0 0-1.36-.04L6.34 38.25a.99.99 0 0 0-.09 1.41c.2.23.47.34.75.34"/></defs><g><g><use fill="#e1e1e1" xlink:href="#73sga"/></g><g><use fill="#e1e1e1" xlink:href="#73sgb"/></g><g><use fill="#e1e1e1" xlink:href="#73sgc"/></g></g></svg>