<?xml version="1.0" encoding="utf-8"?>
<!-- Generator: Adobe Illustrator 19.0.1, SVG Export Plug-In . SVG Version: 6.00 Build 0)  -->
<svg version="1.1" id="Capa_1" xmlns="http://www.w3.org/2000/svg" xmlns:xlink="http://www.w3.org/1999/xlink" x="0px" y="0px"
	 viewBox="0 240.3 800 799.5" style="enable-background:new 0 240.3 800 799.5;" xml:space="preserve">
<style type="text/css">
	.st0{fill:#010002;}
</style>
<g>
	<g>
		<path class="st0" d="M799.6,871.2c1.7,13-2.3,24.3-11.9,33.9l-112.6,111.8c-5.1,5.6-11.7,10.4-19.9,14.4c-8.2,4-16.2,6.5-24.1,7.6
			c-0.6,0-2.3,0.1-5.1,0.4c-2.8,0.3-6.5,0.4-11,0.4c-10.7,0-28.1-1.8-52.1-5.5c-24-3.7-53.4-12.7-88.1-27.1
			c-34.7-14.4-74.1-36-118.1-64.8c-44-28.8-90.9-68.3-140.6-118.6c-39.5-39-72.3-76.2-98.2-111.8c-26-35.6-46.9-68.5-62.7-98.7
			c-15.8-30.2-27.7-57.6-35.6-82.1c-7.9-24.6-13.3-45.7-16.1-63.5s-4-31.8-3.4-41.9C0.7,415.6,1,409.9,1,408.8
			c1.1-7.9,3.7-16,7.6-24.1s8.8-14.8,14.4-19.9l112.6-112.6c7.9-7.9,16.9-11.9,27.1-11.9c7.3,0,13.8,2.1,19.5,6.4
			c5.6,4.2,10.4,9.5,14.4,15.7l90.6,171.9c5.1,9,6.5,18.9,4.2,29.6s-7.1,19.8-14.4,27.1l-41.5,41.5c-1.1,1.1-2.1,3-3,5.5
			s-1.3,4.7-1.3,6.4c2.3,11.9,7.3,25.4,15.2,40.7c6.8,13.6,17.2,30.1,31.3,49.5c14.1,19.5,34.2,41.9,60.1,67.3
			c25.4,26,48,46.2,67.8,60.6c19.8,14.4,36.3,25,49.5,31.8c13.3,6.8,23.4,10.9,30.5,12.3l10.6,2.1c1.1,0,3-0.4,5.5-1.3
			c2.5-0.8,4.4-1.8,5.5-3l48.3-49.1c10.2-9,22-13.5,35.6-13.5c9.6,0,17.2,1.7,22.9,5.1h0.8l163.5,96.5
			C790.3,850.6,797.4,859.9,799.6,871.2z"/>
	</g>
</g>
</svg>
