<?xml version="1.0" encoding="utf-8"?>
<!-- Generator: Adobe Illustrator 19.0.1, SVG Export Plug-In . SVG Version: 6.00 Build 0)  -->
<svg version="1.1" id="Capa_1" xmlns="http://www.w3.org/2000/svg" xmlns:xlink="http://www.w3.org/1999/xlink" x="0px" y="0px"
	 viewBox="27 0 106 106" style="enable-background:new 27 0 106 106;" xml:space="preserve">
<style type="text/css">
	.st0{fill:none;}
</style>
<g>
	<g>
		<path d="M96.6,0C82,0,68.9,8.6,63,22c-0.7,1.7,0,3.6,1.7,4.4c1.7,0.7,3.6,0,4.4-1.7c4.8-10.9,15.5-18,27.4-18
			c16.4,0,29.8,13.4,29.8,29.8c0,11.9-7.1,22.7-18,27.4c-1.7,0.7-2.4,2.7-1.7,4.4c0.5,1.2,1.8,2,3,2c0.4,0,0.9-0.1,1.3-0.3
			c13.4-5.8,22-19,22-33.5C133,16.4,116.6,0,96.6,0z"/>
	</g>
</g>
<g>
	<g>
		<path d="M63.4,33.1C43.4,33.1,27,49.5,27,69.6S43.4,106,63.4,106s36.4-16.4,36.4-36.4S83.5,33.1,63.4,33.1z M63.4,99.4
			C47,99.4,33.6,86,33.6,69.6S47,39.8,63.4,39.8s29.8,13.4,29.8,29.8S79.9,99.4,63.4,99.4z"/>
	</g>
</g>
<g>
	<path d="M60,81.4v4.1c0,1.4-1.2,2.6-2.6,2.6h0c-1.4,0-2.6-1.2-2.6-2.6v-4.1h-2.1c-1.2,0-2.1-0.9-2.1-2.1l0,0c0-1.2,0.9-2.1,2.1-2.1
		h2.1v-3.5h-2c-1.2,0-2.3-1-2.3-2.3l0,0c0-1.2,1-2.3,2.3-2.3h2V53.7c0-0.9,0.7-1.6,1.6-1.6h7.1c8.6,0,12.7,4.3,12.7,10.8
		c0,6.6-4.1,10.7-12.7,10.7H60v3.5h7.1c1.2,0,2.1,0.9,2.1,2.1l0,0c0,1.2-0.9,2.1-2.1,2.1H60z M60,69.2h3.4c6,0,7.4-3.4,7.4-6.3
		c0-2.9-1.5-5.9-7.4-5.9H60V69.2z"/>
</g>
<g>
	<path class="st0" d="M105.4,34.5c0-2.9-1.5-5.9-7.4-5.9h-3.4v12.2H98C104,40.7,105.4,37.3,105.4,34.5z"/>
	<rect x="89.3" y="45.3" class="st0" width="0.1" height="3.5"/>
	<path d="M98,45.3c8.6,0,12.7-4.1,12.7-10.7c0-6.5-4.1-10.8-12.7-10.8h-7.1c-0.9,0-1.6,0.7-1.6,1.6v15.4h-0.1v4.5h0.1l5.2,7.7h7.1
		c1.2,0,2.1-0.9,2.1-2.1c0-1.2-0.9-2.1-2.1-2.1h-7.1v-3.5H98z M94.6,28.5H98c6,0,7.4,3.1,7.4,5.9c0,2.9-1.5,6.3-7.4,6.3h-3.4V28.5z"
		/>
</g>
<path d="M98,53h3.9c1.2,0,2.1-1,2.1-2.1v0c0-1.2-1-2.1-2.1-2.1H98c-1.2,0-2.1,1-2.1,2.1v0C95.9,52,96.8,53,98,53z"/>
</svg>
