<svg width="42" height="42" viewBox="0 0 42 42" fill="none" xmlns="http://www.w3.org/2000/svg">
<g clip-path="url(#clip0_85_63)">
<path d="M18.9978 23.002C16.9503 20.9545 15.4068 18.662 14.3813 16.3363C14.1643 15.8445 14.292 15.2688 14.6718 14.889L16.105 13.4575C17.2793 12.2833 17.2793 10.6225 16.2538 9.59702L14.1993 7.54252C12.8325 6.17577 10.617 6.17577 9.25027 7.54252L8.10927 8.68352C6.81252 9.98027 6.27177 11.851 6.62177 13.706C7.48627 18.2788 10.1428 23.2855 14.4285 27.5713C18.7143 31.857 23.721 34.5135 28.2938 35.378C30.1488 35.728 32.0195 35.1873 33.3163 33.8905L34.4555 32.7513C35.8223 31.3845 35.8223 29.169 34.4555 27.8023L32.4028 25.7495C31.3773 24.724 29.7148 24.724 28.691 25.7495L27.1108 27.3315C26.731 27.7113 26.1553 27.839 25.6635 27.622C23.3378 26.5948 21.0453 25.0495 18.9978 23.002V23.002Z" stroke="white" stroke-width="3" stroke-linecap="round" stroke-linejoin="round"/>
</g>
<defs>
<clipPath id="clip0_85_63">
<rect width="42" height="42" fill="white"/>
</clipPath>
</defs>
</svg>
