<svg xmlns="http://www.w3.org/2000/svg" xmlns:xlink="http://www.w3.org/1999/xlink" width="0" height="0" style="position:absolute">
		<symbol id="preloader" viewBox="0 0 59 59">
			<g transform="translate(-931 -1535)"><path id="3q4fa" d="M973.77 1584.37a30.86 30.86 0 0 1-3.76 2.09c-.1.04-.2.08-.3.14-.36.16.3-.12-.05.01-.24.1-.47.2-.73.28-1.8.67-3.67 1.14-5.56 1.43.4-.07-.1.01-.24.03l-.65.07a27.78 27.78 0 0 1-5.72-.11c.42.05-.1-.02-.24-.05a26.97 26.97 0 0 1-5.86-1.64c-.25-.1.02 0 .06.03a27.66 27.66 0 0 1-3.39-1.77c-1.06-.64-2.66-.26-3.26.86a2.43 2.43 0 0 0 .85 3.27 29.33 29.33 0 0 0 31.24-.5c1.04-.68 1.59-2.14.86-3.26-.66-1.06-2.15-1.62-3.25-.88z"></path><path id="3q4fb" d="M979.36 1549.02a28.38 28.38 0 0 1 3.25 5.48l.05.11.09.21c.1.24.18.47.26.7a28.4 28.4 0 0 1 1.2 4.44c.05.26.1.5.13.75.02.1.06.46 0 0l.05.32.14 1.6a28.28 28.28 0 0 1-.13 4.56l-.04.33c.01-.1.07-.47 0 0l-.14.84a26 26 0 0 1-1.42 4.96c-.01.05-.24.58-.12.32.1-.24-.05.08-.06.11l-.22.49a25.9 25.9 0 0 1-1.75 3.17 2.4 2.4 0 0 0 .85 3.26c1.18.62 2.54.27 3.26-.85a29.33 29.33 0 0 0 2.6-26.24c-1-2.48-2.25-4.8-3.87-6.94-.76-1-2.09-1.6-3.27-.85-.99.6-1.68 2.17-.86 3.23z"></path><path id="3q4fc" d="M946.55 1543.87c.84-.56 1.7-1.08 2.62-1.54.43-.23.87-.42 1.3-.63.42-.2.14-.06.04-.03l.31-.13a24.63 24.63 0 0 1 5.7-1.58l.44-.07c.37-.06-.37.03.01 0 2-.18 3.98-.25 5.98-.04l.65.07.33.05a25.76 25.76 0 0 1 5.19 1.42l.3.12c.05.02.45.19.23.09l.12.05.5.23a28.56 28.56 0 0 1 3.8 2.17c1.04.7 2.7.22 3.27-.85.64-1.2.25-2.51-.86-3.27a29.4 29.4 0 0 0-32.34-.18c-1.04.69-1.59 2.14-.86 3.26.68 1.04 2.16 1.6 3.27.86z"></path><path id="3q4fd" d="M939.47 1577.01a25.8 25.8 0 0 1-2.04-4.04l-.25-.7c-.22-.6-.41-1.22-.58-1.84a21.98 21.98 0 0 1-.83-6.86c.02-.6.05-1.21.1-1.8l.1-.95.08-.56c.21-1.2.5-2.38.86-3.55a20 20 0 0 1 1.2-3.06c.58-1.2 1.26-2.34 2-3.45.7-1.04.23-2.69-.85-3.26-1.2-.65-2.5-.26-3.26.85a29.35 29.35 0 0 0-3.74 24.85 29.38 29.38 0 0 0 3.07 6.8c.65 1.06 2.15 1.57 3.26.85 1.1-.7 1.57-2.13.88-3.28z"></path></g>
		</symbol>
		<symbol id="okay" viewBox="0 0 122 122">
			<g transform="translate(-899 -1944)"><path d="M989.14 1990.48l-34.09 34.1a3.56 3.56 0 0 1-5.05 0l-19.14-19.15a3.57 3.57 0 1 1 5.05-5.05l16.62 16.61 31.56-31.56a3.57 3.57 0 1 1 5.05 5.05zm14-28.61A60.6 60.6 0 0 0 960 1944a60.6 60.6 0 0 0-43.13 17.87A60.6 60.6 0 0 0 899 2005a60.6 60.6 0 0 0 17.87 43.13A60.6 60.6 0 0 0 960 2066a60.6 60.6 0 0 0 43.13-17.87A60.6 60.6 0 0 0 1021 2005a60.6 60.6 0 0 0-17.87-43.13z"></path></g>
		</symbol>
		<symbol id="close" viewBox="0 0 21.9 21.9">
	        <path d="M14.1 11.3c-.2-.2-.2-.5 0-.7l7.5-7.5c.2-.2.3-.5.3-.7s-.1-.5-.3-.7L20.2.3c-.2-.2-.5-.3-.7-.3-.3 0-.5.1-.7.3l-7.5 7.5c-.2.2-.5.2-.7 0L3.1.3C2.9.1 2.6 0 2.4 0s-.5.1-.7.3L.3 1.7c-.2.2-.3.5-.3.7s.1.5.3.7l7.5 7.5c.2.2.2.5 0 .7L.3 18.8c-.2.2-.3.5-.3.7s.1.5.3.7l1.4 1.4c.2.2.5.3.7.3s.5-.1.7-.3l7.5-7.5c.2-.2.5-.2.7 0l7.5 7.5c.2.2.5.3.7.3s.5-.1.7-.3l1.4-1.4c.2-.2.3-.5.3-.7s-.1-.5-.3-.7l-7.5-7.5z"></path>
		</symbol>
		<symbol id="arr" viewBox="27 21.9 106 62.3">
			<path d="M84.1 82.4l47.2-47.2c1.1-1.1 1.7-2.5 1.7-4.1 0-1.6-.6-3-1.7-4.1l-3.5-3.5c-2.3-2.3-5.9-2.3-8.2 0L80 63.2 40.4 23.6c-1.1-1.1-2.5-1.7-4.1-1.7-1.6 0-3 .6-4.1 1.7L28.7 27c-1.1 1.1-1.7 2.5-1.7 4.1 0 1.6.6 3 1.7 4.1l47.2 47.2c1.1 1.1 2.6 1.7 4.1 1.7 1.6 0 3-.6 4.1-1.7z"></path>
		</symbol>
	
		<symbol id="email" viewBox="27 15.9 106 74.2">
			<style>.st0{fill:#010002}</style><path class="st0" d="M35.4 20.3l38.2 30.2c1.7 1.4 4.1 2 6.4 1.9 2.3.1 4.7-.5 6.4-1.9l38.2-30.2c3.1-2.4 2.4-4.4-1.5-4.4H36.9c-3.9 0-4.6 2-1.5 4.4z"></path><path class="st0" d="M127.4 28.3L85.6 59.9C84 61.1 82 61.6 80 61.6c-2 0-4.1-.5-5.6-1.7L32.6 28.3C29.5 26 27 27.2 27 31.1v52c0 3.9 3.2 7.1 7.1 7.1h91.8c3.9 0 7.1-3.2 7.1-7.1v-52c0-3.9-2.5-5.2-5.6-2.8z"></path>
		</symbol>
	
		<symbol id="location" viewBox="119.8 240 560.3 800">
			<path d="M598.1 322.1C545.2 269.1 474.9 240 400 240c-74.8 0-145.2 29.1-198.1 82.1C104 420 91.8 604.2 175.6 715.8L400 1040l224.1-323.7c84.1-112.1 72-296.3-26-394.2zM402.6 619.9c-56.4 0-102.3-45.9-102.3-102.3s45.9-102.3 102.3-102.3 102.3 45.9 102.3 102.3S459 619.9 402.6 619.9z"></path>
		</symbol>
	
		<symbol id="lupa_icon" viewBox="158.7 390 482.7 500">
			<path d="M166.7 882.6c4.9 4.8 11.4 7.4 18.3 7.4 7.3 0 13.9-2.9 19-8.1l119.9-124.7c34.1 23.9 73.9 36.5 115.7 36.5 111.3 0 201.9-90.6 201.9-201.9S550.8 390 439.5 390s-201.9 90.6-201.9 201.9c0 47.6 16.8 93.4 47.4 129.8L166 845.4c-10.1 10.5-9.7 27.2.7 37.2zm422-290.7c0 82.3-66.9 149.2-149.2 149.2s-149.3-66.9-149.3-149.2 66.9-149.2 149.3-149.2 149.2 66.9 149.2 149.2z"></path>
		</symbol>
	
		<symbol id="no_picture" viewBox="0 0 58 46">
			<defs><path id="40a" d="M2 2h54v42H2zM1 0a1 1 0 0 0-1 1v44a1 1 0 0 0 1 1h56a1 1 0 0 0 1-1V1a1 1 0 0 0-1-1z"></path><path id="41b" d="M20.14 16.57a3.57 3.57 0 1 1-7.14 0 3.57 3.57 0 0 1 7.14 0zm2 0a5.58 5.58 0 1 0-11.16.02 5.58 5.58 0 0 0 11.16-.02z"></path><path id="42c" d="M7 40a1 1 0 0 0 .66-.25l16.31-14.36 10.31 10.3a1 1 0 1 0 1.41-1.41l-4.81-4.81 9.18-10.06 11.26 10.33c.41.37 1.04.34 1.42-.06.37-.41.34-1.04-.06-1.42l-12-11c-.2-.18-.46-.27-.72-.26a.99.99 0 0 0-.7.33l-9.79 10.72-4.75-4.74a1 1 0 0 0-1.36-.04L6.34 38.25a.99.99 0 0 0-.09 1.41c.2.23.47.34.75.34"></path></defs><use xlink:href="#40a"></use><use xlink:href="#41b"></use><use xlink:href="#42c"></use>
		</symbol>
	
		<symbol id="phone" viewBox="0 240.3 800 799.5">
			<style>.st0{fill:#010002}</style><path class="st0" d="M799.6 871.2c1.7 13-2.3 24.3-11.9 33.9l-112.6 111.8c-5.1 5.6-11.7 10.4-19.9 14.4s-16.2 6.5-24.1 7.6c-.6 0-2.3.1-5.1.4-2.8.3-6.5.4-11 .4-10.7 0-28.1-1.8-52.1-5.5s-53.4-12.7-88.1-27.1c-34.7-14.4-74.1-36-118.1-64.8-44-28.8-90.9-68.3-140.6-118.6-39.5-39-72.3-76.2-98.2-111.8-26-35.6-46.9-68.5-62.7-98.7-15.8-30.2-27.7-57.6-35.6-82.1-7.9-24.6-13.3-45.7-16.1-63.5s-4-31.8-3.4-41.9c.6-10.1.9-15.8.9-16.9 1.1-7.9 3.7-16 7.6-24.1s8.8-14.8 14.4-19.9l112.6-112.6c7.9-7.9 16.9-11.9 27.1-11.9 7.3 0 13.8 2.1 19.5 6.4 5.6 4.2 10.4 9.5 14.4 15.7l90.6 171.9c5.1 9 6.5 18.9 4.2 29.6s-7.1 19.8-14.4 27.1l-41.5 41.5c-1.1 1.1-2.1 3-3 5.5s-1.3 4.7-1.3 6.4c2.3 11.9 7.3 25.4 15.2 40.7 6.8 13.6 17.2 30.1 31.3 49.5 14.1 19.5 34.2 41.9 60.1 67.3 25.4 26 48 46.2 67.8 60.6 19.8 14.4 36.3 25 49.5 31.8 13.3 6.8 23.4 10.9 30.5 12.3l10.6 2.1c1.1 0 3-.4 5.5-1.3 2.5-.8 4.4-1.8 5.5-3l48.3-49.1c10.2-9 22-13.5 35.6-13.5 9.6 0 17.2 1.7 22.9 5.1h.8l163.5 96.5c12 7.2 19.1 16.5 21.3 27.8z"></path>
		</symbol>
	
		<symbol id="rub_icon" viewBox="27 0 106 106">
			<style>.st0{fill:none}</style><path d="M96.6 0C82 0 68.9 8.6 63 22c-.7 1.7 0 3.6 1.7 4.4 1.7.7 3.6 0 4.4-1.7 4.8-10.9 15.5-18 27.4-18 16.4 0 29.8 13.4 29.8 29.8 0 11.9-7.1 22.7-18 27.4-1.7.7-2.4 2.7-1.7 4.4.5 1.2 1.8 2 3 2 .4 0 .9-.1 1.3-.3 13.4-5.8 22-19 22-33.5C133 16.4 116.6 0 96.6 0z"></path><path d="M63.4 33.1c-20 0-36.4 16.4-36.4 36.5S43.4 106 63.4 106s36.4-16.4 36.4-36.4-16.3-36.5-36.4-36.5zm0 66.3C47 99.4 33.6 86 33.6 69.6S47 39.8 63.4 39.8s29.8 13.4 29.8 29.8-13.3 29.8-29.8 29.8z"></path><path d="M60 81.4v4.1c0 1.4-1.2 2.6-2.6 2.6-1.4 0-2.6-1.2-2.6-2.6v-4.1h-2.1c-1.2 0-2.1-.9-2.1-2.1 0-1.2.9-2.1 2.1-2.1h2.1v-3.5h-2c-1.2 0-2.3-1-2.3-2.3 0-1.2 1-2.3 2.3-2.3h2V53.7c0-.9.7-1.6 1.6-1.6h7.1c8.6 0 12.7 4.3 12.7 10.8 0 6.6-4.1 10.7-12.7 10.7H60v3.5h7.1c1.2 0 2.1.9 2.1 2.1 0 1.2-.9 2.1-2.1 2.1H60zm0-12.2h3.4c6 0 7.4-3.4 7.4-6.3S69.3 57 63.4 57H60v12.2z"></path><path class="st0" d="M105.4 34.5c0-2.9-1.5-5.9-7.4-5.9h-3.4v12.2H98c6-.1 7.4-3.5 7.4-6.3zM89.3 45.3h.1v3.5h-.1z"></path><path d="M98 45.3c8.6 0 12.7-4.1 12.7-10.7 0-6.5-4.1-10.8-12.7-10.8h-7.1c-.9 0-1.6.7-1.6 1.6v15.4h-.1v4.5h.1l5.2 7.7h7.1c1.2 0 2.1-.9 2.1-2.1 0-1.2-.9-2.1-2.1-2.1h-7.1v-3.5H98zm-3.4-16.8H98c6 0 7.4 3.1 7.4 5.9 0 2.9-1.5 6.3-7.4 6.3h-3.4V28.5z"></path><path d="M98 53h3.9c1.2 0 2.1-1 2.1-2.1 0-1.2-1-2.1-2.1-2.1H98c-1.2 0-2.1 1-2.1 2.1S96.8 53 98 53z"></path>
		</symbol>
		<symbol id="no_man_template" viewBox="-511.5 569.4 1024 910.1">
        	<path d="M474.4 1331.2c-.1-43.8-30.7-44.8-67.1-59.6l-170.9-68.3c-2.9-1.1-5.9-2.6-8.9-3.8v-.1c-30.2-13.7-57.1-32.9-66.9-46.1l-.2-.8-.1-.1c-.7-.9-1.5-1.8-1.9-2.4l-.2-.8v-.2l-.6-.7c-4.3-6.8-9.1-10-13.1-8.3H144.2l-.1.1-.6.2c-4.4 2.7-3.5-.2-5.4-5.2-4.7-12.8-12.5-36.2-13.6-39.9-1.9-6.3-6.3 10.2-5.2-7.9l2-32.5c3-3.6 5.5-6.4 7.2-8.2 11.2-12.5 12.1-46.3 17.8-54.4 5.4-8.1 16.5-9.9 27.8-48 11.2-38.4 24.5-92.8 10.4-93.6-3.7-.3-7.8 2-11.8 5.7 2.7-14 7.9-45.9 9-69.2 1.7-30.9-3.3-110.2-21-139.3-11-18.2-33.1-36.1-55.1-50.1-13.2-8.4-26.2-15.4-37.2-20.1-32-14.3-133.7-7.8-167.9 0-39 8.7-66.6 33.2-84 62.2C-201 669-208.9 756.1-207.4 787c.9 13.7 9 37.2 11.1 51.5 1.3 7.5 2.3 7.5 3.4 12.7-1.6-.6-3-.9-4.4-.7-14.2.8-.8 55.3 10.3 93.6 11.4 38.1 22.4 39.9 27.9 48 5.6 8.1 6.4 41.9 17.6 54.4 1.6 1.9 4.4 4.9 7.6 8.7l2.3 26.7 3.6 14.5c-1.6-4.1-5-7-6.6-1.2-4.9 14.7-9.5 29.1-14.4 43.8-.5-.8-1.4-1.1-2.1-1.1-4.8-4.5-11-.7-16.6 9-8.4 14-36.4 34.2-68.8 48.6l-.5 2-.5 1.7-.2.9c-2.5 1-5 2-7.8 3l-170.6 68.3c-36.5 14.8-67.1 15.8-67.2 59.6l-28.3 148.4h1024l-38-148.2z"/>
</symbol>
</svg>
