<?xml version="1.0" encoding="utf-8"?>
<!-- Generator: Adobe Illustrator 19.0.1, SVG Export Plug-In . SVG Version: 6.00 Build 0)  -->
<svg version="1.1" id="Слой_1" xmlns="http://www.w3.org/2000/svg" xmlns:xlink="http://www.w3.org/1999/xlink" x="0px" y="0px"
	 viewBox="0 0 153.7 38.1" style="enable-background:new 0 0 153.7 38.1;" xml:space="preserve">
<style type="text/css">
	.st0{fill:#01508a;}
	.st1{font-family:'MuseoSansCyrl-500';}
	.st2{font-size:9.3032px;}
</style>
<g>
	<path class="st0" d="M3,0h5.4l2.9,8.5c0.5,1.3,1,3.3,1,3.3h0.1c0,0,0.6-2,1-3.3L16.4,0h5.4l1.6,20.2h-4.9l-0.6-9.1
		c-0.1-1.5,0-3.4,0-3.4h-0.1c0,0-0.7,2.1-1.1,3.4L14.5,17h-4.2l-2.1-5.9C7.7,9.8,7,7.7,7,7.7H7c0,0,0.1,1.9,0,3.4l-0.6,9.1h-5L3,0z"
		/>
	<path class="st0" d="M32.9,5.3c4.3,0,6.7,3,6.7,7c0,0.5-0.1,1-0.1,1.5h-9.2c0.4,1.8,1.8,2.6,3.4,2.6c1.4,0,2.8-0.7,4-1.5l1.8,3.4
		c-1.6,1.4-4,2.1-6.2,2.1c-5.2,0-8-3.8-8-7.6C25.3,8.7,28.2,5.3,32.9,5.3z M34.8,11.1c0-1.2-0.8-2.2-2-2.2c-1.4,0-2.1,1-2.3,2.2
		H34.8z"/>
	<path class="st0" d="M48.3,22.1c1.8,0,3.4-0.7,3.4-2.8v-0.5c0-0.2,0-0.5,0-0.5h-0.1c-0.8,1-2,1.5-3.6,1.5c-4.4,0-6.6-3.6-6.6-7.3
		c0-3.7,2.1-7.2,6.5-7.2c1.4,0,2.9,0.4,4,1.4H52c0,0,0-0.2,0-0.3V5.7h4.6v13.2c0,5.3-4.2,7.3-8.2,7.3c-2,0-4.1-0.6-5.5-1.3l1.4-3.7
		C45.4,21.7,46.8,22.1,48.3,22.1z M49.2,15.7c1.3,0,2.6-0.6,2.6-3.2c0-2.6-1.4-3.1-2.8-3.1c-1.7,0-2.6,1.2-2.6,2.9
		C46.4,14.1,47.2,15.7,49.2,15.7z"/>
	<path class="st0" d="M67.1,11.1h0.4v-0.3c0-1.2-1-1.6-2.1-1.6c-1.4,0-2.9,0.6-4,1.4l-1.7-3.5c1.2-1,3.8-1.9,6.2-1.9
		c4,0,6.5,2.2,6.5,5.9v9h-4.5v-0.9c0-0.5,0.1-0.9,0.1-0.9h-0.1c-1,1.4-2.7,2.1-4.3,2.1c-2.8,0-4.8-1.9-4.8-4.4
		C58.8,12.2,63.5,11.1,67.1,11.1z M65,16.9c1.4,0,2.5-1.4,2.5-2.6v-0.4h-0.5c-1.5,0-3.4,0.4-3.4,1.7C63.7,16.3,64.1,16.9,65,16.9z"
		/>
	<path class="st0" d="M75.8,0h7.4c4,0,6.9,1.8,6.9,5.3c0,1.7-0.8,3.4-2.3,4.3v0.1c2.3,0.7,3.2,2.8,3.2,4.6c0,4.4-3.7,6-7.7,6h-7.4V0
		z M83.3,7.8C84.5,7.8,85,6.9,85,6c0-0.9-0.5-1.7-1.9-1.7h-2.5v3.6H83.3z M83.7,16c1.4,0,2.1-1,2.1-2.1c0-1.1-0.7-2.1-2.1-2.1h-3V16
		H83.7z"/>
	<path class="st0" d="M100.2,5.3c4.3,0,6.7,3,6.7,7c0,0.5-0.1,1-0.1,1.5h-9.2c0.4,1.8,1.8,2.6,3.4,2.6c1.4,0,2.8-0.7,4-1.5l1.8,3.4
		c-1.6,1.4-4,2.1-6.2,2.1c-5.2,0-8-3.8-8-7.6C92.6,8.7,95.5,5.3,100.2,5.3z M102.1,11.1c0-1.2-0.8-2.2-2-2.2c-1.4,0-2.1,1-2.3,2.2
		H102.1z"/>
	<path class="st0" d="M110.3,9.7h-1.9V5.9h2V1.7h4.8v4.2h3.1v3.8h-3.1v4.5c0,1.6,1.7,1.9,2.6,1.9c0.2,0,0.3,0,0.7,0v4.2
		c-0.4,0-0.8,0.1-1.3,0.1c-2.3,0-6.8-0.6-6.8-5.5V9.7z"/>
	<path class="st0" d="M128.4,5.3c4.6,0,8.3,3.1,8.3,7.7c0,4.6-3.7,7.6-8.3,7.6s-8.3-3-8.3-7.6C120.2,8.4,123.8,5.3,128.4,5.3z
		 M128.4,16.5c1.8,0,3.3-1.3,3.3-3.5c0-2.2-1.5-3.6-3.3-3.6c-1.8,0-3.3,1.4-3.3,3.6C125.1,15.2,126.6,16.5,128.4,16.5z"/>
	<path class="st0" d="M139.1,5.7h4.7v1.3c0,0.5-0.1,0.9-0.1,0.9h0.1c0.7-1.1,2.1-2.5,4.6-2.5c2.9,0,5.2,1.4,5.2,5.5v9.4h-4.9v-8.5
		c0-1.4-0.5-1.9-1.6-1.9c-2.2,0-3.2,1.8-3.2,3.9v6.6h-4.9V5.7z"/>
</g>
<text transform="matrix(1 0 0 1 0 35.7813)" class="st0 st1 st2">Первая бетонная компания</text>
</svg>
